<svg width="205" height="46" viewBox="0 0 205 46" fill="none" xmlns="http://www.w3.org/2000/svg">
<path d="M23.3811 46C19.7114 37.799 13.1525 30.9124 2.54549 25.9092C2.76203 25.0167 2.94866 24.189 3.17241 23.3665C3.21674 23.2022 3.35698 23.0267 3.52814 22.904C5.51303 21.4699 7.57422 20.0814 9.49414 18.6098C13.8815 15.2466 17.2656 11.4412 20.2115 7.4472C20.9003 6.51411 23.0574 6.24939 24.4318 6.85996C23.8905 7.35186 23.3193 7.83058 22.8109 8.3387C17.3605 13.7861 13.2907 19.5956 12.5658 26.2571C12.239 29.2622 13.7598 31.742 17.4718 33.5331C19.1165 34.3262 20.7745 35.1082 22.4439 35.877C26.4642 37.729 30.7195 38.9998 35.7988 38.6114C38.2002 38.4278 40.4831 37.9501 41.4833 36.5139C43.1723 34.0859 44.8715 31.5655 45.6036 28.962C46.2666 26.6039 45.75 24.0785 45.5624 21.6332C45.3139 18.3826 44.2601 15.2233 42.6175 12.1613C41.9937 10.999 42.1845 10.2556 43.7528 9.26368C50.5952 16.271 60.3526 17.1706 71.535 15.0874C71.6876 15.8298 71.8681 16.5357 71.9495 17.2456C71.967 17.3978 71.6804 17.6483 71.4443 17.7203C64.41 19.8654 58.3502 22.8462 53.6648 27.0147C52.0903 28.4153 50.2013 29.7095 49.0197 31.2471C46.2955 34.7958 45.6387 38.6692 45.9614 42.6236C46.0532 43.7403 46.2233 44.8549 46.3697 45.999H67.6147C69.3924 42.8397 71.3443 39.7402 72.8249 36.5423C75.1253 31.5736 76.9164 26.5066 76.6225 21.2397C76.5008 19.0672 76.1451 16.8988 75.8255 14.7334C75.0191 9.25556 71.5917 4.80108 64.3038 1.99776C62.3674 1.25331 60.1784 0.632606 57.9996 0.398319C56.0797 0.191417 53.9938 0.532197 52.0171 0.765469C50.3983 0.956144 48.7062 1.18232 47.2668 1.67929C44.2982 2.70467 42.5299 4.57896 40.6935 6.37009C37.1361 9.83773 35.8029 13.9028 34.2243 17.8532C33.3221 20.1098 33.5097 22.5612 33.1416 24.9203C33.1055 25.1546 32.5395 25.5704 32.359 25.54C31.1897 25.3372 30.0586 25.0339 28.8522 24.7489C28.9986 24.472 29.1017 24.2448 29.2347 24.0268C30.5267 21.8999 31.86 19.7832 33.1117 17.6453C35.8225 13.0133 35.8308 8.29611 33.618 3.6124C33.0643 2.44097 31.8641 0.958173 30.3844 0.541325C28.2346 -0.0641682 25.5238 -0.076339 23.1203 0.0950654C19.1175 0.380063 15.8097 2.01905 12.5957 3.45926C8.99199 5.07391 6.63797 7.55268 5.0779 10.2951C1.79794 16.06 0.728676 22.0926 0.191467 28.2054C-0.330274 34.1457 0.250241 40.0343 1.49582 46H23.3811Z" fill="white"/>
<path d="M96.3374 44.218C97.9872 44.861 99.5668 45.5477 101.358 46H139.141C139.294 44.7981 139.623 43.6328 139.442 42.5151C138.694 37.9075 135.643 34.0473 129.248 31.454C126.791 30.458 124.254 29.1882 121.44 28.9143C116.628 28.4478 111.573 28.5431 106.61 28.6334C101.35 28.7287 96.3807 29.7146 92.0676 31.7623C90.4168 32.5463 88.9278 33.456 87.2874 34.3506C86.7842 34.1153 86.2624 33.8729 86.0108 33.7542C95.5816 24.2002 103.282 14.3287 108.092 3.62866C109.665 3.84469 111.311 4.07086 113.005 4.30413C111.702 5.5425 110.524 6.63381 109.393 7.74135C106.017 11.0487 103.204 14.4363 104.037 18.3877C105.057 23.2296 108.328 27.2257 116.374 27.7967C118.579 27.9529 121.085 28.2946 123.049 27.8362C129.469 26.3372 133.489 23.3107 136.122 19.5297C139.347 14.8967 141.037 10.2617 138.173 5.53845C136.59 2.92986 134.254 0.741156 129.033 0.489628C124.821 0.285769 120.604 -0.0763103 116.376 0.01497C105.396 0.250271 95.7703 3.03534 87.3379 7.34276C81.9874 10.0771 78.8054 13.6583 77.997 17.8613C77.3474 21.2387 78.1662 24.4862 79.3798 27.6881C81.9256 34.4023 86.4614 40.371 96.3374 44.218Z" fill="white"/>
<path d="M149.124 45.2596C149.603 45.576 150.104 45.8174 150.628 46H192.69C198.327 44.7829 203.031 41.7778 204.335 38.0769C205.395 35.0656 205.179 32.1092 203.751 29.1862C200.599 22.7357 195.964 17.1635 183.847 16.1473C181.4 15.9424 178.805 15.3207 176.531 15.631C171.166 16.3623 165.964 17.5621 160.67 18.5155C159.702 18.6899 158.61 18.5936 157.576 18.622C157.555 18.4658 157.536 18.3086 157.515 18.1514C157.865 18.056 158.203 17.9404 158.564 17.8684C166.765 16.2223 174.981 14.6026 183.17 12.9312C187.796 11.9869 192.049 10.5721 195.288 8.24036C196.239 7.55576 197.029 6.47764 196.958 5.61149C196.869 4.52525 195.827 3.4664 195.16 2.40552C195.051 2.23209 194.796 2.03939 194.532 1.96738C187.119 -0.0620897 179.407 -0.534719 171.583 0.611356C166.553 1.34971 161.155 1.74526 157.535 4.56481C156.43 5.42487 155.176 6.2109 154.129 7.0953C151.58 9.2485 149.202 11.4879 148.836 14.2598C148.702 15.272 148.517 16.7102 149.421 17.2741C153.721 19.9537 158.431 22.3513 164.906 22.5775C166.157 22.6211 167.411 22.6089 168.664 22.6251C173.771 22.6911 178.881 22.7793 183.669 21.3462C185.62 20.762 187.586 20.1991 189.62 19.6048C190.083 20.0439 190.55 20.4861 191.098 21.0054C185.265 22.6201 180.976 25.1871 178.364 28.7338C175.639 32.4337 176.305 36.1174 179.453 39.7503C178.142 39.7382 177.075 39.727 176.009 39.7169C175.94 39.586 175.873 39.5059 175.859 39.4217C175.832 39.2655 175.832 39.1063 175.828 38.9481C175.717 35.7015 175.476 32.4915 173.09 29.4823C170.541 26.2682 166.75 23.97 161.522 22.5653C155.695 20.9993 149.805 20.9719 144.3 22.8574C139.744 24.4193 137.123 27.0208 137.069 30.4519C137.018 33.7826 137.295 37.1144 140.785 39.8142C143.306 41.7615 146.357 43.435 149.124 45.2596Z" fill="white"/>
</svg>
